<svg width="100" height="100" viewBox="0 0 100 100" class="" xmlns="http://www.w3.org/2000/svg"><g style="transform-origin: 50px 30px; transform: none;"><path d="M28 40 Q26 14 50 12 Q60 12 62 24 Q70 22 72 32 Q74 40 66 40 Z" fill="#f59e0b"></path><circle cx="68" cy="26" r="4" fill="white" fill-opacity="0.85"></circle><rect x="26" y="36" width="48" height="6" rx="3" fill="#f59e0b" fill-opacity="0.75"></rect></g><ellipse cx="50" cy="55" rx="24" ry="25" fill="#fde68a"></ellipse><circle cx="32" cy="58" r="5" fill="#f87171" fill-opacity="0.25"></circle><circle cx="68" cy="58" r="5" fill="#f87171" fill-opacity="0.25"></circle><path d="M33 49 Q40 52 47 49" fill="none" stroke="#1a1d21" stroke-width="2.5" stroke-linecap="round"></path><path d="M53 49 Q60 52 67 49" fill="none" stroke="#1a1d21" stroke-width="2.5" stroke-linecap="round"></path><path d="M42 67 Q50 71 58 67" fill="none" stroke="#1a1d21" stroke-width="2.5" stroke-linecap="round"></path><path d="M26 68 Q50 84 74 68 L74 78 Q50 92 26 78 Z" fill="#f59e0b" fill-opacity="0.85"></path><path d="M26 68 Q50 80 74 68" fill="none" stroke="#f59e0b" stroke-opacity="0.5" stroke-width="2"></path></svg>
